<svg xmlns="http://www.w3.org/2000/svg" width="760" height="500" viewBox="0 0 760 500" role="img" aria-labelledby="title description">
<title id="title">Resource-saving and output-expansion benchmarks</title>
<desc id="description">Observed DMUs, a VRS frontier, and input- and output-oriented operating targets for DMU E.</desc>
<defs>
<marker id="arrow-teal" markerWidth="10" markerHeight="10" refX="8" refY="3" orient="auto" markerUnits="strokeWidth"><path d="M0,0 L0,6 L9,3 z" fill="#176b73"/></marker>
<marker id="arrow-orange" markerWidth="10" markerHeight="10" refX="8" refY="3" orient="auto" markerUnits="strokeWidth"><path d="M0,0 L0,6 L9,3 z" fill="#d97732"/></marker>
<marker id="arrow-purple" markerWidth="10" markerHeight="10" refX="8" refY="3" orient="auto" markerUnits="strokeWidth"><path d="M0,0 L0,6 L9,3 z" fill="#76528f"/></marker>
<marker id="axis-arrow" markerWidth="9" markerHeight="9" refX="8" refY="4" orient="auto"><path d="M0,0 L0,8 L8,4 z" fill="#24323d"/></marker>
</defs>
<rect width="760" height="500" fill="white"/>
<line x1="220.22" y1="48" x2="220.22" y2="438" stroke="#dce5e7" stroke-width="1"/>
<text x="220.22" y="463" text-anchor="middle" font-size="14" fill="#687780">1</text>
<line x1="358.44" y1="48" x2="358.44" y2="438" stroke="#dce5e7" stroke-width="1"/>
<text x="358.44" y="463" text-anchor="middle" font-size="14" fill="#687780">2</text>
<line x1="496.67" y1="48" x2="496.67" y2="438" stroke="#dce5e7" stroke-width="1"/>
<text x="496.67" y="463" text-anchor="middle" font-size="14" fill="#687780">3</text>
<line x1="634.89" y1="48" x2="634.89" y2="438" stroke="#dce5e7" stroke-width="1"/>
<text x="634.89" y="463" text-anchor="middle" font-size="14" fill="#687780">4</text>
<line x1="82" y1="345.14" x2="704" y2="345.14" stroke="#dce5e7" stroke-width="1"/>
<text x="64" y="350.14" text-anchor="end" font-size="14" fill="#687780">1</text>
<line x1="82" y1="252.29" x2="704" y2="252.29" stroke="#dce5e7" stroke-width="1"/>
<text x="64" y="257.29" text-anchor="end" font-size="14" fill="#687780">2</text>
<line x1="82" y1="159.43" x2="704" y2="159.43" stroke="#dce5e7" stroke-width="1"/>
<text x="64" y="164.43" text-anchor="end" font-size="14" fill="#687780">3</text>
<line x1="82" y1="66.57" x2="704" y2="66.57" stroke="#dce5e7" stroke-width="1"/>
<text x="64" y="71.57" text-anchor="end" font-size="14" fill="#687780">4</text>
<line x1="82" y1="438" x2="716" y2="438" stroke="#24323d" stroke-width="2" marker-end="url(#axis-arrow)"/>
<line x1="82" y1="438" x2="82" y2="36" stroke="#24323d" stroke-width="2" marker-end="url(#axis-arrow)"/>
<text x="724" y="444" font-size="18" font-style="italic" fill="#24323d">x</text>
<text x="77" y="26" font-size="18" font-style="italic" fill="#24323d">y</text>
<path d="M 220.22 438.00 L 704.00 438.00 L 704.00 85.14 L 634.89 85.14 L 496.67 131.57 L 358.44 205.86 L 220.22 345.14 Z" fill="#dceff0" opacity="0.72"/>
<path d="M 220.22 345.14 L 358.44 205.86 L 496.67 131.57 L 634.89 85.14" fill="none" stroke="#176b73" stroke-width="4" stroke-linejoin="round"/>
<circle cx="220.22" cy="345.14" r="5.5" fill="#24323d" stroke="white" stroke-width="2"/>
<text x="229.22" y="336.14" font-size="16" font-weight="600" fill="#24323d">A</text>
<circle cx="358.44" cy="205.86" r="5.5" fill="#24323d" stroke="white" stroke-width="2"/>
<text x="367.44" y="196.86" font-size="16" font-weight="600" fill="#24323d">B</text>
<circle cx="496.67" cy="131.57" r="5.5" fill="#24323d" stroke="white" stroke-width="2"/>
<text x="505.67" y="122.57" font-size="16" font-weight="600" fill="#24323d">C</text>
<circle cx="634.89" cy="85.14" r="5.5" fill="#24323d" stroke="white" stroke-width="2"/>
<text x="643.89" y="76.14" font-size="16" font-weight="600" fill="#24323d">D</text>
<circle cx="358.44" cy="298.71" r="7" fill="#d97732" stroke="white" stroke-width="2"/>
<text x="367.44" y="289.71" font-size="16" font-weight="600" fill="#d97732">E</text>
<circle cx="496.67" cy="252.29" r="5.5" fill="#24323d" stroke="white" stroke-width="2"/>
<text x="505.67" y="243.29" font-size="16" font-weight="600" fill="#24323d">F</text>
<circle cx="634.89" cy="178.00" r="5.5" fill="#24323d" stroke="white" stroke-width="2"/>
<text x="643.89" y="169.00" font-size="16" font-weight="600" fill="#24323d">G</text>
<circle cx="565.78" cy="159.43" r="5.5" fill="#24323d" stroke="white" stroke-width="2"/>
<text x="574.78" y="150.43" font-size="16" font-weight="600" fill="#24323d">H</text>
<line x1="351.44" y1="298.71" x2="273.30" y2="298.71" stroke="#176b73" stroke-width="3" marker-end="url(#arrow-teal)"/>
<line x1="358.44" y1="291.71" x2="358.44" y2="213.86" stroke="#d97732" stroke-width="3" marker-end="url(#arrow-orange)"/>
<circle cx="266.30" cy="298.71" r="7" fill="white" stroke="#176b73" stroke-width="3"/>
<text x="256.30" y="285.71" text-anchor="end" font-size="15" fill="#176b73">Eₓ</text>
<text x="371.44" y="227.86" font-size="15" fill="#d97732">Eᵧ (= B)</text>
<text x="371.44" y="252.29" font-size="16" fill="#d97732">y ↑</text>
<text x="312.37" y="321.71" text-anchor="middle" font-size="16" fill="#176b73">x ↓</text>
<line x1="512" y1="72" x2="558" y2="72" stroke="#176b73" stroke-width="4"/>
<text x="568" y="78" font-size="15" fill="#24323d">VRS</text>
<rect x="512" y="91" width="46" height="17" fill="#dceff0" opacity="0.9"/>
<text x="568" y="105" font-size="15" fill="#24323d">T</text>
</svg>
