<svg xmlns="http://www.w3.org/2000/svg" width="760" height="500" viewBox="0 0 760 500" role="img" aria-labelledby="title description">
<title id="title">Absolute and relative input slacks</title>
<desc id="description">Two normalized bars show the same absolute input slack of ten as fifty percent for a small DMU and one percent for a large DMU.</desc>
<defs>
<marker id="arrow-teal" markerWidth="10" markerHeight="10" refX="8" refY="3" orient="auto" markerUnits="strokeWidth"><path d="M0,0 L0,6 L9,3 z" fill="#176b73"/></marker>
<marker id="arrow-orange" markerWidth="10" markerHeight="10" refX="8" refY="3" orient="auto" markerUnits="strokeWidth"><path d="M0,0 L0,6 L9,3 z" fill="#d97732"/></marker>
<marker id="arrow-purple" markerWidth="10" markerHeight="10" refX="8" refY="3" orient="auto" markerUnits="strokeWidth"><path d="M0,0 L0,6 L9,3 z" fill="#76528f"/></marker>
<marker id="axis-arrow" markerWidth="9" markerHeight="9" refX="8" refY="4" orient="auto"><path d="M0,0 L0,8 L8,4 z" fill="#24323d"/></marker>
</defs>
<rect width="760" height="500" fill="white"/>
<text x="82" y="179" font-size="20" font-weight="600" fill="#24323d">DMU S</text>
<rect x="175" y="150" width="470" height="44" rx="7" fill="#dceff0" stroke="#dce5e7" stroke-width="2"/>
<rect x="175" y="150" width="235.00" height="44" rx="7" fill="#176b73" opacity="0.9"/>
<rect x="410.00" y="150" width="235.00" height="44" fill="#d97732"/>
<text x="175" y="135" font-size="16" fill="#24323d">x = 20</text>
<text x="645" y="135" text-anchor="end" font-size="16" fill="#d97732">s⁻ = 10</text>
<text x="645" y="225" text-anchor="end" font-size="18" font-weight="600" fill="#d97732">s⁻ / x = 50%</text>
<text x="82" y="344" font-size="20" font-weight="600" fill="#24323d">DMU L</text>
<rect x="175" y="315" width="470" height="44" rx="7" fill="#dceff0" stroke="#dce5e7" stroke-width="2"/>
<rect x="175" y="315" width="465.30" height="44" rx="7" fill="#176b73" opacity="0.9"/>
<rect x="640.30" y="315" width="5.00" height="44" fill="#d97732"/>
<text x="175" y="300" font-size="16" fill="#24323d">x = 1000</text>
<text x="645" y="300" text-anchor="end" font-size="16" fill="#d97732">s⁻ = 10</text>
<text x="645" y="390" text-anchor="end" font-size="18" font-weight="600" fill="#d97732">s⁻ / x = 1%</text>
<rect x="175" y="420" width="24" height="15" fill="#176b73"/>
<text x="209" y="433" font-size="15" fill="#24323d">x - s⁻</text>
<rect x="365" y="420" width="24" height="15" fill="#d97732"/>
<text x="399" y="433" font-size="15" fill="#24323d">s⁻</text>
</svg>
