<?xml version="1.0" encoding="utf-8"?><!-- Generated from the English SVG by figures/localize_handbook_figures_zh.py; do not edit this file directly. --><svg xmlns="http://www.w3.org/2000/svg" width="600" height="960" viewBox="0 0 600 960" role="img" aria-labelledby="title description">
<title id="title">三种不同的非合意产出技术设定</title>
<desc id="description">仅有非合意产出等式并未规定规模报酬与凸性。共同因子 CRS 核算采用统一留存率，活动特定 VRS 核算则允许各参照活动采用不同留存率。</desc>
<rect width="600" height="960" fill="#ffffff"/>
<g font-family="Noto Sans CJK SC, Source Han Sans SC, Microsoft YaHei, PingFang SC, Arial, Helvetica, sans-serif">
<rect x="24" y="30" width="552" height="270" rx="16" fill="#f2f4f5" stroke="#8d9aa0" stroke-width="2"/>
<text x="48" y="70" text-anchor="start" font-size="23" font-weight="700" fill="#24323d">仅有等式</text>
<rect x="24" y="330" width="552" height="270" rx="16" fill="#e9f4f5" stroke="#176b73" stroke-width="2"/>
<text x="48" y="370" text-anchor="start" font-size="23" font-weight="700" fill="#24323d">共同因子（CRS）</text>
<rect x="24" y="630" width="552" height="300" rx="16" fill="#f2edf6" stroke="#76528f" stroke-width="2"/>
<text x="48" y="670" text-anchor="start" font-size="23" font-weight="700" fill="#24323d">活动特定型（VRS）</text>
<rect x="48" y="94" width="190" height="72" rx="10" fill="#ffffff" stroke="#8d9aa0" stroke-width="2"/>
<text x="143" y="120" text-anchor="middle" font-size="16" font-weight="400" fill="#24323d">非合意产出核算</text>
<text x="143" y="150" text-anchor="middle" font-size="22" font-weight="700" fill="#24323d">Bλ = b̂</text>
<line x1="255" y1="130" x2="328" y2="130" stroke="#8d9aa0" stroke-width="3" stroke-dasharray="7 6"/>
<circle cx="374" cy="130" r="31" fill="#d97732"/>
<text x="374" y="141" text-anchor="middle" font-size="30" font-weight="700" fill="#ffffff">?</text>
<text x="48" y="207" text-anchor="start" font-size="17" font-weight="400" fill="#24323d">规模报酬与凸性仍未明确。</text>
<text x="48" y="235" text-anchor="start" font-size="17" font-weight="400" fill="#24323d">仅凭等式本身，不能识别一种具有明确名称的</text>
<text x="48" y="263" text-anchor="start" font-size="17" font-weight="400" fill="#24323d">弱处置技术。</text>
<rect x="48" y="395" width="95" height="75" rx="8" fill="#ffffff" stroke="#176b73" stroke-width="2"/>
<text x="95" y="423" text-anchor="middle" font-size="16" font-weight="700" fill="#24323d">工厂 A</text>
<rect x="69" y="440" width="53" height="16" rx="4" fill="#176b73"/>
<rect x="158" y="395" width="95" height="75" rx="8" fill="#ffffff" stroke="#176b73" stroke-width="2"/>
<text x="205" y="423" text-anchor="middle" font-size="16" font-weight="700" fill="#24323d">工厂 B</text>
<rect x="179" y="440" width="53" height="16" rx="4" fill="#176b73"/>
<rect x="268" y="395" width="95" height="75" rx="8" fill="#ffffff" stroke="#176b73" stroke-width="2"/>
<text x="315" y="423" text-anchor="middle" font-size="16" font-weight="700" fill="#24323d">工厂 C</text>
<rect x="289" y="440" width="53" height="16" rx="4" fill="#176b73"/>
<rect x="429" y="394" width="123" height="77" rx="10" fill="#176b73"/>
<text x="490" y="421" text-anchor="middle" font-size="16" font-weight="700" fill="#ffffff">统一留存</text>
<text x="490" y="447" text-anchor="middle" font-size="18" font-weight="700" fill="#ffffff">率 r</text>
<text x="48" y="515" text-anchor="start" font-size="17" font-weight="400" fill="#24323d">所有被表示的活动均按</text>
<text x="48" y="543" text-anchor="start" font-size="17" font-weight="400" fill="#24323d">CRS 组合中的同一比例留存。</text>
<text x="48" y="574" text-anchor="start" font-size="16" font-weight="400" fill="#176b73">这一线性表示中的恒等关系以 CRS 为前提。</text>
<rect x="48" y="695" width="95" height="103" rx="8" fill="#ffffff" stroke="#76528f" stroke-width="2"/>
<text x="95" y="723" text-anchor="middle" font-size="16" font-weight="700" fill="#24323d">工厂 A</text>
<rect x="69" y="740" width="53" height="25" rx="4" fill="#76528f"/>
<text x="95" y="787" text-anchor="middle" font-size="13" font-weight="400" fill="#24323d">留存率 = .9</text>
<rect x="158" y="695" width="95" height="103" rx="8" fill="#ffffff" stroke="#76528f" stroke-width="2"/>
<text x="205" y="723" text-anchor="middle" font-size="16" font-weight="700" fill="#24323d">工厂 B</text>
<rect x="179" y="746" width="53" height="19" rx="4" fill="#76528f"/>
<text x="205" y="787" text-anchor="middle" font-size="13" font-weight="400" fill="#24323d">留存率 = .5</text>
<rect x="268" y="695" width="95" height="103" rx="8" fill="#ffffff" stroke="#76528f" stroke-width="2"/>
<text x="315" y="723" text-anchor="middle" font-size="16" font-weight="700" fill="#24323d">工厂 C</text>
<rect x="289" y="746" width="53" height="19" rx="4" fill="#76528f"/>
<text x="315" y="787" text-anchor="middle" font-size="13" font-weight="400" fill="#24323d">留存率 = .7</text>
<rect x="429" y="701" width="123" height="90" rx="10" fill="#76528f"/>
<text x="490" y="729" text-anchor="middle" font-size="16" font-weight="700" fill="#ffffff">不同</text>
<text x="490" y="754" text-anchor="middle" font-size="16" font-weight="700" fill="#ffffff">留存率</text>
<text x="490" y="779" text-anchor="middle" font-size="18" font-weight="700" fill="#ffffff">rj</text>
<text x="48" y="840" text-anchor="start" font-size="17" font-weight="400" fill="#24323d">参照活动可以在同一</text>
<text x="48" y="868" text-anchor="start" font-size="17" font-weight="400" fill="#24323d">VRS 凸组合中采用不同留存率。</text>
<text x="48" y="901" text-anchor="start" font-size="16" font-weight="400" fill="#76528f">这一凸组合线性化保留 VRS 设定。</text>
</g>
</svg>
